<svg xmlns="http://www.w3.org/2000/svg" viewBox="0 0 800 600">
<defs><radialGradient id="bg" cx="50%" cy="40%" r="78%">
<stop offset="0%" stop-color="#12211a"/><stop offset="55%" stop-color="#0c1512"/><stop offset="100%" stop-color="#070c0a"/>
</radialGradient>
<linearGradient id="scanband" x1="0" y1="0" x2="1" y2="0">
<stop offset="0%" stop-color="#7dd3fc" stop-opacity="0"/><stop offset="50%" stop-color="#7dd3fc" stop-opacity=".16"/><stop offset="100%" stop-color="#7dd3fc" stop-opacity="0"/>
</linearGradient></defs>
<style>
.ln{fill:#0e1613;stroke:#8aa69b;stroke-width:2;opacity:.85}
.lnb{fill:none;stroke:#dcefe7;stroke-width:2;opacity:.9}
.dim{fill:none;stroke:#5c7269;stroke-width:1.5;opacity:.4}
.grn{stroke:#34d399}.cyn{stroke:#7dd3fc}.amb{stroke:#fbbf24}
.fillG{fill:#34d399}.fillC{fill:#7dd3fc}.fillA{fill:#fbbf24}
.led{animation:blink 2.4s ease-in-out infinite}
.flow{stroke-dasharray:10 14;animation:flow 2.8s linear infinite}
.scan{animation:scan 5.5s ease-in-out infinite}
.pulse{animation:pulse 3s ease-in-out infinite}
.bob{animation:bob 4.5s ease-in-out infinite}
.lbl{font-family:ui-monospace,Menlo,monospace;font-size:13px;letter-spacing:4px;fill:#5f766c}
@keyframes blink{0%,100%{opacity:.12}50%{opacity:1}}
@keyframes flow{to{stroke-dashoffset:-48}}
@keyframes scan{0%,100%{opacity:.08}50%{opacity:.85}}
@keyframes pulse{0%,100%{opacity:.3}50%{opacity:1}}
@keyframes bob{0%,100%{transform:translateY(0)}50%{transform:translateY(-5px)}}
@media (prefers-reduced-motion:reduce){*{animation:none!important}}
</style>
<rect width="800" height="600" fill="url(#bg)"/>

<polygon points="664,26 208,96 596,340" fill="#7dd3fc" opacity=".07" class="pulse"/>
<rect class="ln" x="176" y="72" width="448" height="272" rx="10"/>
<path class="dim" d="M216 296 V110 M216 296 H584"/>
<path class="flow grn" d="M228 282 L306 240 L376 256 L452 182 L540 148" stroke-width="3"/>
<rect class="fillC" x="262" y="252" width="34" height="44" opacity=".55" style="transform-box:fill-box;transform-origin:50% 100%;animation:bar 3.4s ease-in-out 0s infinite alternate"/><rect class="fillC" x="368" y="230" width="34" height="66" opacity=".55" style="transform-box:fill-box;transform-origin:50% 100%;animation:bar 3.4s ease-in-out -1.1s infinite alternate"/><rect class="fillC" x="474" y="200" width="34" height="96" opacity=".55" style="transform-box:fill-box;transform-origin:50% 100%;animation:bar 3.4s ease-in-out -2.2s infinite alternate"/>
<circle r="4.5" class="fillA"><animateMotion dur="4s" repeatCount="indefinite" path="M228 282 L306 240 L376 256 L452 182 L540 148"/></circle>
<circle class="led fillC" cx="664" cy="26" r="6"/>
<g class="bob"><circle class="lnb" cx="270" cy="446" r="20"/><path class="lnb" d="M238 508 Q270 472 302 508"/></g>
<g class="bob" style="animation-delay:-1.4s"><circle class="lnb" cx="400" cy="456" r="20"/><path class="lnb" d="M368 518 Q400 482 432 518"/></g>
<g class="bob" style="animation-delay:-2.8s"><circle class="lnb" cx="530" cy="446" r="20"/><path class="lnb" d="M498 508 Q530 472 562 508"/></g>
<style>@keyframes bar{from{transform:scaleY(.25)}to{transform:scaleY(1)}}</style>
<text class="lbl" x="58" y="556">EXPERT DEMO / PANEL REVIEW</text>
</svg>
