<svg xmlns="http://www.w3.org/2000/svg" viewBox="0 0 800 600">
<defs><radialGradient id="bg" cx="50%" cy="40%" r="78%">
<stop offset="0%" stop-color="#12211a"/><stop offset="55%" stop-color="#0c1512"/><stop offset="100%" stop-color="#070c0a"/>
</radialGradient>
<linearGradient id="scanband" x1="0" y1="0" x2="1" y2="0">
<stop offset="0%" stop-color="#7dd3fc" stop-opacity="0"/><stop offset="50%" stop-color="#7dd3fc" stop-opacity=".16"/><stop offset="100%" stop-color="#7dd3fc" stop-opacity="0"/>
</linearGradient></defs>
<style>
.ln{fill:#0e1613;stroke:#8aa69b;stroke-width:2;opacity:.85}
.lnb{fill:none;stroke:#dcefe7;stroke-width:2;opacity:.9}
.dim{fill:none;stroke:#5c7269;stroke-width:1.5;opacity:.4}
.grn{stroke:#34d399}.cyn{stroke:#7dd3fc}.amb{stroke:#fbbf24}
.fillG{fill:#34d399}.fillC{fill:#7dd3fc}.fillA{fill:#fbbf24}
.led{animation:blink 2.4s ease-in-out infinite}
.flow{stroke-dasharray:10 14;animation:flow 2.8s linear infinite}
.scan{animation:scan 5.5s ease-in-out infinite}
.pulse{animation:pulse 3s ease-in-out infinite}
.bob{animation:bob 4.5s ease-in-out infinite}
.lbl{font-family:ui-monospace,Menlo,monospace;font-size:13px;letter-spacing:4px;fill:#5f766c}
@keyframes blink{0%,100%{opacity:.12}50%{opacity:1}}
@keyframes flow{to{stroke-dashoffset:-48}}
@keyframes scan{0%,100%{opacity:.08}50%{opacity:.85}}
@keyframes pulse{0%,100%{opacity:.3}50%{opacity:1}}
@keyframes bob{0%,100%{transform:translateY(0)}50%{transform:translateY(-5px)}}
@media (prefers-reduced-motion:reduce){*{animation:none!important}}
</style>
<rect width="800" height="600" fill="url(#bg)"/>

<rect class="ln" x="330" y="80" width="380" height="244" rx="10"/>
<path class="flow cyn" d="M362 268 C 420 210, 462 158, 540 178 S 656 128, 688 104" stroke-width="3"/>
<line class="dim" x1="362" y1="120" x2="470" y2="120"/><line class="dim" x1="362" y1="142" x2="430" y2="142"/>
<ellipse class="ln" cx="300" cy="476" rx="240" ry="34"/>
<g class="bob"><circle class="lnb" cx="180" cy="330" r="22"/><path class="lnb" d="M146 398 Q180 358 214 398"/></g>
<g class="bob" style="animation-delay:-1.5s"><circle class="lnb" cx="266" cy="356" r="20"/><path class="lnb" d="M236 420 Q266 384 296 420"/></g>
<g class="bob" style="animation-delay:-3s"><circle class="lnb grn" cx="96" cy="380" r="18" opacity=".8"/><path class="lnb grn" d="M68 440 Q96 406 124 440" opacity=".8"/></g>
<line class="lnb amb" x1="214" y1="352" x2="330" y2="240" opacity=".6"><animate attributeName="opacity" values=".2;.7;.2" dur="3s" repeatCount="indefinite"/></line>
<text class="lbl" x="58" y="556">TECHNICAL MENTOR / REVIEW</text>
</svg>
