<svg xmlns="http://www.w3.org/2000/svg" viewBox="0 0 1200 800" width="100%" height="100%">
  <defs>
    <linearGradient id="tf-bg" x1="0%" y1="0%" x2="100%" y2="100%">
      <stop offset="0%" stop-color="#0a1220"/>
      <stop offset="40%" stop-color="#14263e"/>
      <stop offset="75%" stop-color="#2a3f5a"/>
      <stop offset="100%" stop-color="#0d1828"/>
    </linearGradient>
    <linearGradient id="thin-film-irid" x1="0%" y1="20%" x2="100%" y2="80%">
      <stop offset="0%" stop-color="#93c5fd" stop-opacity="0.9"/>
      <stop offset="25%" stop-color="#bae6fd" stop-opacity="0.85"/>
      <stop offset="50%" stop-color="#fed7aa" stop-opacity="0.75"/>
      <stop offset="75%" stop-color="#fbcfe8" stop-opacity="0.8"/>
      <stop offset="100%" stop-color="#c084fc" stop-opacity="0.85"/>
    </linearGradient>
    <radialGradient id="laser-spot" cx="50%" cy="40%" r="45%">
      <stop offset="0%" stop-color="#ffffff" stop-opacity="0.95"/>
      <stop offset="30%" stop-color="#7dd3fc" stop-opacity="0.7"/>
      <stop offset="70%" stop-color="#38bdf8" stop-opacity="0.2"/>
      <stop offset="100%" stop-color="#0284c7" stop-opacity="0"/>
    </radialGradient>
  </defs>
  <rect width="1200" height="800" fill="url(#tf-bg)"/>
  <path d="M-100 200 Q 300 100, 600 350 T 1300 250 L 1300 900 L -100 900 Z" fill="url(#thin-film-irid)" opacity="0.88"/>
  <path d="M-100 320 Q 400 220, 750 480 T 1300 380 L 1300 900 L -100 900 Z" fill="url(#thin-film-irid)" opacity="0.65"/>
  <ellipse cx="620" cy="340" rx="380" ry="240" fill="url(#laser-spot)"/>
  <g opacity="0.3" stroke="#e0f2fe" stroke-width="0.8" fill="none">
    <ellipse cx="620" cy="340" rx="300" ry="180"/>
    <ellipse cx="620" cy="340" rx="220" ry="130"/>
    <ellipse cx="620" cy="340" rx="140" ry="80"/>
    <line x1="100" y1="340" x2="1140" y2="340"/>
    <line x1="620" y1="50" x2="620" y2="650"/>
  </g>
  <text x="50" y="750" fill="rgba(240,249,255,0.7)" font-family="monospace" font-size="16" letter-spacing="2">AFM SCALE: 20nm // IRIDESCENT NANOLAYER DEPOSITION</text>
</svg>
