<svg xmlns="http://www.w3.org/2000/svg" viewBox="0 0 800 600">
<defs><radialGradient id="bg" cx="50%" cy="40%" r="78%">
<stop offset="0%" stop-color="#12211a"/><stop offset="55%" stop-color="#0c1512"/><stop offset="100%" stop-color="#070c0a"/>
</radialGradient>
<linearGradient id="scanband" x1="0" y1="0" x2="1" y2="0">
<stop offset="0%" stop-color="#7dd3fc" stop-opacity="0"/><stop offset="50%" stop-color="#7dd3fc" stop-opacity=".16"/><stop offset="100%" stop-color="#7dd3fc" stop-opacity="0"/>
</linearGradient></defs>
<style>
.ln{fill:#0e1613;stroke:#8aa69b;stroke-width:2;opacity:.85}
.lnb{fill:none;stroke:#dcefe7;stroke-width:2;opacity:.9}
.dim{fill:none;stroke:#5c7269;stroke-width:1.5;opacity:.4}
.grn{stroke:#34d399}.cyn{stroke:#7dd3fc}.amb{stroke:#fbbf24}
.fillG{fill:#34d399}.fillC{fill:#7dd3fc}.fillA{fill:#fbbf24}
.led{animation:blink 2.4s ease-in-out infinite}
.flow{stroke-dasharray:10 14;animation:flow 2.8s linear infinite}
.scan{animation:scan 5.5s ease-in-out infinite}
.pulse{animation:pulse 3s ease-in-out infinite}
.bob{animation:bob 4.5s ease-in-out infinite}
.lbl{font-family:ui-monospace,Menlo,monospace;font-size:13px;letter-spacing:4px;fill:#5f766c}
@keyframes blink{0%,100%{opacity:.12}50%{opacity:1}}
@keyframes flow{to{stroke-dashoffset:-48}}
@keyframes scan{0%,100%{opacity:.08}50%{opacity:.85}}
@keyframes pulse{0%,100%{opacity:.3}50%{opacity:1}}
@keyframes bob{0%,100%{transform:translateY(0)}50%{transform:translateY(-5px)}}
@media (prefers-reduced-motion:reduce){*{animation:none!important}}
</style>
<rect width="800" height="600" fill="url(#bg)"/>

<rect class="ln" x="70" y="110" width="660" height="380" rx="14"/>
<path class="flow grn" d="M120 180 H320 V300 H470" opacity=".8"/>
<path class="flow cyn" d="M140 410 H300 V350 H340" opacity=".7" style="animation-delay:-1s"/>
<path class="flow grn" d="M540 150 V260 H620" opacity=".7" style="animation-delay:-2s"/>
<path class="flow cyn" d="M210 140 V230" opacity=".6" style="animation-delay:-.5s"/>
<rect class="lnb" x="340" y="230" width="150" height="110" rx="8"/>
<rect class="fillC pulse" x="376" y="262" width="78" height="46" opacity=".25"/>
<rect class="dim" x="376" y="262" width="78" height="46"/>
<line class="dim" x1="352" y1="222" x2="352" y2="230"/><line class="dim" x1="352" y1="340" x2="352" y2="348"/><line class="dim" x1="377" y1="222" x2="377" y2="230"/><line class="dim" x1="377" y1="340" x2="377" y2="348"/><line class="dim" x1="402" y1="222" x2="402" y2="230"/><line class="dim" x1="402" y1="340" x2="402" y2="348"/><line class="dim" x1="427" y1="222" x2="427" y2="230"/><line class="dim" x1="427" y1="340" x2="427" y2="348"/><line class="dim" x1="452" y1="222" x2="452" y2="230"/><line class="dim" x1="452" y1="340" x2="452" y2="348"/><line class="dim" x1="477" y1="222" x2="477" y2="230"/><line class="dim" x1="477" y1="340" x2="477" y2="348"/>
<circle class="fillG" cx="120" cy="180" r="4"/><circle class="fillG" cx="470" cy="300" r="4"/><circle class="fillC" cx="620" cy="260" r="4"/><circle class="fillG" cx="210" cy="230" r="4"/>
<circle r="4" class="fillC"><animateMotion dur="3.5s" repeatCount="indefinite" path="M120 180 H320 V300 H470"/></circle>
<circle r="3" class="fillG"><animateMotion dur="4.2s" repeatCount="indefinite" path="M540 150 V260 H620"/></circle>
<text class="lbl" x="58" y="556">PCB REV C / ASSEMBLY</text>
</svg>
