<svg xmlns="http://www.w3.org/2000/svg" viewBox="0 0 800 600">
<defs><radialGradient id="bg" cx="50%" cy="40%" r="78%">
<stop offset="0%" stop-color="#12211a"/><stop offset="55%" stop-color="#0c1512"/><stop offset="100%" stop-color="#070c0a"/>
</radialGradient>
<linearGradient id="scanband" x1="0" y1="0" x2="1" y2="0">
<stop offset="0%" stop-color="#7dd3fc" stop-opacity="0"/><stop offset="50%" stop-color="#7dd3fc" stop-opacity=".16"/><stop offset="100%" stop-color="#7dd3fc" stop-opacity="0"/>
</linearGradient></defs>
<style>
.ln{fill:#0e1613;stroke:#8aa69b;stroke-width:2;opacity:.85}
.lnb{fill:none;stroke:#dcefe7;stroke-width:2;opacity:.9}
.dim{fill:none;stroke:#5c7269;stroke-width:1.5;opacity:.4}
.grn{stroke:#34d399}.cyn{stroke:#7dd3fc}.amb{stroke:#fbbf24}
.fillG{fill:#34d399}.fillC{fill:#7dd3fc}.fillA{fill:#fbbf24}
.led{animation:blink 2.4s ease-in-out infinite}
.flow{stroke-dasharray:10 14;animation:flow 2.8s linear infinite}
.scan{animation:scan 5.5s ease-in-out infinite}
.pulse{animation:pulse 3s ease-in-out infinite}
.bob{animation:bob 4.5s ease-in-out infinite}
.lbl{font-family:ui-monospace,Menlo,monospace;font-size:13px;letter-spacing:4px;fill:#5f766c}
@keyframes blink{0%,100%{opacity:.12}50%{opacity:1}}
@keyframes flow{to{stroke-dashoffset:-48}}
@keyframes scan{0%,100%{opacity:.08}50%{opacity:.85}}
@keyframes pulse{0%,100%{opacity:.3}50%{opacity:1}}
@keyframes bob{0%,100%{transform:translateY(0)}50%{transform:translateY(-5px)}}
@media (prefers-reduced-motion:reduce){*{animation:none!important}}
</style>
<rect width="800" height="600" fill="url(#bg)"/>

<rect class="ln" x="272" y="76" width="256" height="348" rx="6"/>
<line class="lnb" x1="300" y1="118" x2="440" y2="118"/>
<line class="dim" x1="300" y1="156" x2="500" y2="156"/><line class="dim" x1="300" y1="182" x2="458" y2="182"/><line class="dim" x1="300" y1="208" x2="416" y2="208"/><line class="dim" x1="300" y1="234" x2="500" y2="234"/><line class="dim" x1="300" y1="260" x2="458" y2="260"/>
<path class="flow grn" d="M306 356 C 336 314, 356 396, 388 344 S 428 326, 452 352" stroke-width="2.5"/>
<circle class="amb pulse" cx="560" cy="390" r="34" fill="none" stroke-width="2"/>
<circle class="amb" cx="560" cy="390" r="24" fill="none" stroke-width="1.5" opacity=".5"/>
<path class="amb" d="M560 374 L564 386 L577 386 L567 394 L571 406 L560 399 L549 406 L553 394 L543 386 L556 386 Z" fill="none" stroke-width="1.5" opacity=".8"/>
<path class="lnb" d="M196 200 V262 Q196 300 166 320 Q136 300 136 262 V200 Q166 184 196 200 Z"/>
<path class="flow grn" d="M150 256 L163 271 L185 240" stroke-width="3"/>
<text class="lbl" x="58" y="556">IP WORKING SESSION / FILINGS</text>
</svg>
